<?xml version="1.0" encoding="utf-8"?>
<svg viewBox="24 24 52 52" xmlns="http://www.w3.org/2000/svg">
  <path d="M61,50a2,2,0,0,0-2-2H52V41a2,2,0,0,0-4,0v7H41a2,2,0,0,0,0,4h7v7a2,2,0,0,0,4,0V52h7A2,2,0,0,0,61,50Z" style="fill: rgb(0, 255, 0);"/>
  <path d="M26,40.58a2,2,0,0,0,2-2V28H38.58a2,2,0,0,0,0-4H26a2,2,0,0,0-2,2V38.58A2,2,0,0,0,26,40.58Z" style="fill: rgb(0, 255, 0);"/>
  <path d="M74,24H61.42a2,2,0,0,0,0,4H72V38.58a2,2,0,0,0,4,0V26A2,2,0,0,0,74,24Z" style="fill: rgb(0, 255, 0);"/>
  <path d="M74,59.42a2,2,0,0,0-2,2V72H61.42a2,2,0,0,0,0,4H74a2,2,0,0,0,2-2V61.42A2,2,0,0,0,74,59.42Z" style="fill: rgb(0, 255, 0);"/>
  <path d="M38.58,72H28V61.42a2,2,0,0,0-4,0V74a2,2,0,0,0,2,2H38.58a2,2,0,0,0,0-4Z" style="fill: rgb(0, 255, 0);"/>
</svg>